{
	"patcher" : 	{
		"fileversion" : 1,
		"appversion" : 		{
			"major" : 8,
			"minor" : 1,
			"revision" : 11,
			"architecture" : "x64",
			"modernui" : 1
		}
,
		"classnamespace" : "box",
		"rect" : [ 42.0, 85.0, 1886.0, 1273.0 ],
		"bglocked" : 0,
		"openinpresentation" : 1,
		"default_fontsize" : 12.0,
		"default_fontface" : 0,
		"default_fontname" : "Arial",
		"gridonopen" : 1,
		"gridsize" : [ 15.0, 15.0 ],
		"gridsnaponopen" : 1,
		"objectsnaponopen" : 1,
		"statusbarvisible" : 2,
		"toolbarvisible" : 1,
		"lefttoolbarpinned" : 0,
		"toptoolbarpinned" : 0,
		"righttoolbarpinned" : 0,
		"bottomtoolbarpinned" : 0,
		"toolbars_unpinned_last_save" : 0,
		"tallnewobj" : 0,
		"boxanimatetime" : 200,
		"enablehscroll" : 1,
		"enablevscroll" : 1,
		"devicewidth" : 0.0,
		"description" : "",
		"digest" : "",
		"tags" : "",
		"style" : "evening_coffee",
		"subpatcher_template" : "",
		"assistshowspatchername" : 0,
		"boxes" : [ 			{
				"box" : 				{
					"id" : "obj-18",
					"maxclass" : "newobj",
					"numinlets" : 2,
					"numoutlets" : 2,
					"outlettype" : [ "", "" ],
					"patching_rect" : [ 174.152542352676392, 485.0, 55.0, 22.0 ],
					"text" : "zl.slice 2"
				}

			}
, 			{
				"box" : 				{
					"id" : "obj-11",
					"maxclass" : "newobj",
					"numinlets" : 2,
					"numoutlets" : 2,
					"outlettype" : [ "", "" ],
					"patching_rect" : [ 187.840777111053399, 589.085597943870198, 63.0, 22.0 ],
					"text" : "route args"
				}

			}
, 			{
				"box" : 				{
					"id" : "obj-9",
					"maxclass" : "newobj",
					"numinlets" : 0,
					"numoutlets" : 1,
					"outlettype" : [ "" ],
					"patching_rect" : [ 265.840777111053399, 540.0, 115.0, 22.0 ],
					"text" : "r currentRoutineKey"
				}

			}
, 			{
				"box" : 				{
					"id" : "obj-8",
					"maxclass" : "newobj",
					"numinlets" : 1,
					"numoutlets" : 0,
					"patching_rect" : [ 391.873131036758423, 76.993349142372608, 117.0, 22.0 ],
					"text" : "s currentRoutineKey"
				}

			}
, 			{
				"box" : 				{
					"id" : "obj-4",
					"maxclass" : "newobj",
					"numinlets" : 1,
					"numoutlets" : 1,
					"outlettype" : [ "" ],
					"patching_rect" : [ 210.152542352676392, 511.0, 47.0, 22.0 ],
					"text" : "dict.iter"
				}

			}
, 			{
				"box" : 				{
					"comment" : "",
					"id" : "obj-2",
					"index" : 0,
					"maxclass" : "outlet",
					"numinlets" : 1,
					"numoutlets" : 0,
					"patching_rect" : [ 187.840777111053399, 620.085597943870198, 30.0, 30.0 ],
					"varname" : "fullLibrary[1]"
				}

			}
, 			{
				"box" : 				{
					"fontsize" : 14.0,
					"id" : "obj-3",
					"maxclass" : "textedit",
					"numinlets" : 1,
					"numoutlets" : 4,
					"outlettype" : [ "", "int", "", "" ],
					"parameter_enable" : 0,
					"patching_rect" : [ 20.152542352676392, 414.963338548495358, 311.0, 29.0 ],
					"presentation" : 1,
					"presentation_rect" : [ 240.294610167543169, 147.123977731913328, 109.443814679980278, 23.0 ]
				}

			}
, 			{
				"box" : 				{
					"id" : "obj-44",
					"linecount" : 2,
					"maxclass" : "comment",
					"numinlets" : 1,
					"numoutlets" : 0,
					"patching_rect" : [ 701.572916751106391, 94.021191962063313, 150.0, 34.0 ],
					"text" : "delete: erase component\nenter: select textEdit"
				}

			}
, 			{
				"box" : 				{
					"id" : "obj-10",
					"maxclass" : "newobj",
					"numinlets" : 1,
					"numoutlets" : 0,
					"patching_rect" : [ 72.652542352676392, 182.867303790702408, 113.0, 22.0 ],
					"text" : "s currentLibraryKey"
				}

			}
, 			{
				"box" : 				{
					"id" : "obj-27",
					"maxclass" : "newobj",
					"numinlets" : 1,
					"numoutlets" : 0,
					"patching_rect" : [ 188.464307594299385, 268.175517143859452, 119.0, 22.0 ],
					"text" : "s currentRoutineText"
				}

			}
, 			{
				"box" : 				{
					"id" : "obj-26",
					"maxclass" : "newobj",
					"numinlets" : 0,
					"numoutlets" : 1,
					"outlettype" : [ "" ],
					"patching_rect" : [ 188.464307594299385, 108.44649749994278, 107.0, 22.0 ],
					"text" : "r routineTextEditUI"
				}

			}
, 			{
				"box" : 				{
					"id" : "obj-22",
					"maxclass" : "newobj",
					"numinlets" : 1,
					"numoutlets" : 0,
					"patching_rect" : [ 611.552599292000082, 433.146590437075474, 74.0, 22.0 ],
					"text" : "s currentArg"
				}

			}
, 			{
				"box" : 				{
					"id" : "obj-21",
					"maxclass" : "newobj",
					"numinlets" : 1,
					"numoutlets" : 0,
					"patching_rect" : [ 451.572916751106391, 322.316894468275677, 85.0, 22.0 ],
					"text" : "s defaultArgUI"
				}

			}
, 			{
				"box" : 				{
					"id" : "obj-19",
					"maxclass" : "newobj",
					"numinlets" : 0,
					"numoutlets" : 1,
					"outlettype" : [ "" ],
					"patching_rect" : [ 451.572916751106391, 108.203359963550156, 87.0, 22.0 ],
					"text" : "r argContextUI"
				}

			}
, 			{
				"box" : 				{
					"id" : "obj-16",
					"maxclass" : "newobj",
					"numinlets" : 0,
					"numoutlets" : 1,
					"outlettype" : [ "" ],
					"patching_rect" : [ 557.547519927223561, 106.176601030952725, 83.0, 22.0 ],
					"text" : "r defaultArgUI"
				}

			}
, 			{
				"box" : 				{
					"id" : "obj-14",
					"maxclass" : "newobj",
					"numinlets" : 1,
					"numoutlets" : 0,
					"patching_rect" : [ 11.652542352676392, 208.867303790702408, 141.0, 22.0 ],
					"text" : "s currentLibraryCategory"
				}

			}
, 			{
				"box" : 				{
					"id" : "obj-13",
					"maxclass" : "newobj",
					"numinlets" : 1,
					"numoutlets" : 0,
					"patching_rect" : [ 188.464307594299385, 74.993349142372608, 159.0, 22.0 ],
					"text" : "s currentRoutineComponent"
				}

			}
, 			{
				"box" : 				{
					"id" : "obj-6",
					"maxclass" : "newobj",
					"numinlets" : 0,
					"numoutlets" : 1,
					"outlettype" : [ "" ],
					"patching_rect" : [ 188.464307594299385, 3.021191962063313, 127.0, 22.0 ],
					"text" : "r routineComponentUI"
				}

			}
, 			{
				"box" : 				{
					"id" : "obj-12",
					"maxclass" : "newobj",
					"numinlets" : 0,
					"numoutlets" : 1,
					"outlettype" : [ "" ],
					"patching_rect" : [ 11.652542352676392, 4.021191962063313, 109.0, 22.0 ],
					"text" : "r libraryCategoryUI"
				}

			}
, 			{
				"box" : 				{
					"id" : "obj-250",
					"maxclass" : "newobj",
					"numinlets" : 2,
					"numoutlets" : 1,
					"outlettype" : [ "clear" ],
					"patcher" : 					{
						"fileversion" : 1,
						"appversion" : 						{
							"major" : 8,
							"minor" : 1,
							"revision" : 11,
							"architecture" : "x64",
							"modernui" : 1
						}
,
						"classnamespace" : "box",
						"rect" : [ 59.0, 107.0, 640.0, 480.0 ],
						"bglocked" : 0,
						"openinpresentation" : 0,
						"default_fontsize" : 12.0,
						"default_fontface" : 0,
						"default_fontname" : "Arial",
						"gridonopen" : 1,
						"gridsize" : [ 15.0, 15.0 ],
						"gridsnaponopen" : 1,
						"objectsnaponopen" : 1,
						"statusbarvisible" : 2,
						"toolbarvisible" : 1,
						"lefttoolbarpinned" : 0,
						"toptoolbarpinned" : 0,
						"righttoolbarpinned" : 0,
						"bottomtoolbarpinned" : 0,
						"toolbars_unpinned_last_save" : 0,
						"tallnewobj" : 0,
						"boxanimatetime" : 200,
						"enablehscroll" : 1,
						"enablevscroll" : 1,
						"devicewidth" : 0.0,
						"description" : "",
						"digest" : "",
						"tags" : "",
						"style" : "evening_coffee",
						"subpatcher_template" : "",
						"assistshowspatchername" : 0,
						"boxes" : [ 							{
								"box" : 								{
									"id" : "obj-81",
									"maxclass" : "newobj",
									"numinlets" : 1,
									"numoutlets" : 2,
									"outlettype" : [ "bang", "" ],
									"patching_rect" : [ 229.169002628326325, 450.715471863746643, 31.0, 22.0 ],
									"text" : "t b s"
								}

							}
, 							{
								"box" : 								{
									"id" : "obj-80",
									"maxclass" : "newobj",
									"numinlets" : 2,
									"numoutlets" : 2,
									"outlettype" : [ "", "" ],
									"patching_rect" : [ 50.0, 101.821961224079132, 39.0, 22.0 ],
									"text" : "zl.join"
								}

							}
, 							{
								"box" : 								{
									"id" : "obj-79",
									"maxclass" : "newobj",
									"numinlets" : 1,
									"numoutlets" : 2,
									"outlettype" : [ "", "clear" ],
									"patching_rect" : [ 228.992530322074799, 314.872993767261505, 47.0, 22.0 ],
									"text" : "t l clear"
								}

							}
, 							{
								"box" : 								{
									"id" : "obj-78",
									"maxclass" : "message",
									"numinlets" : 2,
									"numoutlets" : 1,
									"outlettype" : [ "" ],
									"patching_rect" : [ 233.555358564853577, 553.763082504272461, 65.0, 22.0 ],
									"text" : "append $1"
								}

							}
, 							{
								"box" : 								{
									"comment" : "",
									"id" : "obj-76",
									"index" : 1,
									"maxclass" : "outlet",
									"numinlets" : 1,
									"numoutlets" : 0,
									"patching_rect" : [ 233.555358564853577, 586.542743682861328, 30.0, 30.0 ]
								}

							}
, 							{
								"box" : 								{
									"id" : "obj-74",
									"maxclass" : "newobj",
									"numinlets" : 1,
									"numoutlets" : 1,
									"outlettype" : [ "" ],
									"patching_rect" : [ 386.992530322074799, 472.10584557056427, 25.0, 22.0 ],
									"text" : "iter"
								}

							}
, 							{
								"box" : 								{
									"id" : "obj-73",
									"maxclass" : "newobj",
									"numinlets" : 2,
									"numoutlets" : 2,
									"outlettype" : [ "", "" ],
									"patching_rect" : [ 386.992530322074799, 447.021852552890778, 38.0, 22.0 ],
									"text" : "zl.reg"
								}

							}
, 							{
								"box" : 								{
									"id" : "obj-72",
									"maxclass" : "newobj",
									"numinlets" : 2,
									"numoutlets" : 2,
									"outlettype" : [ "", "" ],
									"patching_rect" : [ 228.992530322074799, 343.718858197331429, 55.0, 22.0 ],
									"text" : "zl.slice 1"
								}

							}
, 							{
								"box" : 								{
									"id" : "obj-71",
									"maxclass" : "newobj",
									"numinlets" : 1,
									"numoutlets" : 4,
									"outlettype" : [ "", "", "", "" ],
									"patching_rect" : [ 50.0, 127.505327820777893, 50.5, 22.0 ],
									"text" : "spray 4"
								}

							}
, 							{
								"box" : 								{
									"id" : "obj-70",
									"linecount" : 5,
									"maxclass" : "message",
									"numinlets" : 2,
									"numoutlets" : 1,
									"outlettype" : [ "" ],
									"patching_rect" : [ 50.0, 165.174907982349396, 178.0, 77.0 ],
									"text" : "$1 \"input.letters: string\" \"output.letters: string\" \"input.parameters: number[][]\" \"output.parameters: number[][]\" \"messages: string[]\""
								}

							}
, 							{
								"box" : 								{
									"id" : "obj-69",
									"linecount" : 4,
									"maxclass" : "message",
									"numinlets" : 2,
									"numoutlets" : 1,
									"outlettype" : [ "" ],
									"patching_rect" : [ 228.992530322074799, 178.025639116764069, 106.941183686256409, 64.0 ],
									"text" : "$1 \"stage: string\" \"index: number\" \"indices: Map\" \"amounts: Map\""
								}

							}
, 							{
								"box" : 								{
									"id" : "obj-61",
									"linecount" : 4,
									"maxclass" : "message",
									"numinlets" : 2,
									"numoutlets" : 1,
									"outlettype" : [ "" ],
									"patching_rect" : [ 340.468473351001649, 178.025639116764069, 142.0, 64.0 ],
									"text" : "$1 \"letters: string\" \"parameters: number[][]\" \"variables: object\" \"constants: object\""
								}

							}
, 							{
								"box" : 								{
									"id" : "obj-57",
									"maxclass" : "newobj",
									"numinlets" : 3,
									"numoutlets" : 2,
									"outlettype" : [ "", "" ],
									"patching_rect" : [ 233.555358564853577, 528.301622569561005, 177.0, 22.0 ],
									"text" : "combine l Ctx. prop @triggers 2"
								}

							}
, 							{
								"box" : 								{
									"id" : "obj-42",
									"maxclass" : "newobj",
									"numinlets" : 3,
									"numoutlets" : 1,
									"outlettype" : [ "int" ],
									"patching_rect" : [ 228.992530322074799, 423.645953178405762, 40.0, 22.0 ],
									"text" : "itoa"
								}

							}
, 							{
								"box" : 								{
									"id" : "obj-41",
									"maxclass" : "newobj",
									"numinlets" : 2,
									"numoutlets" : 2,
									"outlettype" : [ "", "" ],
									"patching_rect" : [ 228.992530322074799, 397.442745387554169, 55.0, 22.0 ],
									"text" : "zl.slice 1"
								}

							}
, 							{
								"box" : 								{
									"id" : "obj-40",
									"maxclass" : "newobj",
									"numinlets" : 3,
									"numoutlets" : 1,
									"outlettype" : [ "list" ],
									"patching_rect" : [ 228.992530322074799, 371.442745387554169, 40.0, 22.0 ],
									"text" : "atoi"
								}

							}
, 							{
								"box" : 								{
									"id" : "obj-30",
									"linecount" : 6,
									"maxclass" : "message",
									"numinlets" : 2,
									"numoutlets" : 1,
									"outlettype" : [ "" ],
									"patching_rect" : [ 484.955602836608705, 151.025639116764069, 232.007980048656464, 91.0 ],
									"text" : "$1 \"input.letters: string\" \"output.letters: string\" \"input.parameters: number[][]\" \"output.parameters: number[][]\" \"regex: string\" \"matches: RegExpMatchArray[]\" \"letters: Map\" \"parameters: Map\" \"conditions: number[]\" \"rewritten: Set\""
								}

							}
, 							{
								"box" : 								{
									"comment" : "",
									"id" : "obj-248",
									"index" : 1,
									"maxclass" : "inlet",
									"numinlets" : 0,
									"numoutlets" : 1,
									"outlettype" : [ "int" ],
									"patching_rect" : [ 49.999999564853624, 40.0, 30.0, 30.0 ]
								}

							}
, 							{
								"box" : 								{
									"comment" : "",
									"id" : "obj-249",
									"index" : 2,
									"maxclass" : "inlet",
									"numinlets" : 0,
									"numoutlets" : 1,
									"outlettype" : [ "" ],
									"patching_rect" : [ 84.999999564853624, 40.0, 30.0, 30.0 ]
								}

							}
 ],
						"lines" : [ 							{
								"patchline" : 								{
									"destination" : [ "obj-80", 0 ],
									"source" : [ "obj-248", 0 ]
								}

							}
, 							{
								"patchline" : 								{
									"destination" : [ "obj-80", 1 ],
									"source" : [ "obj-249", 0 ]
								}

							}
, 							{
								"patchline" : 								{
									"destination" : [ "obj-79", 0 ],
									"source" : [ "obj-30", 0 ]
								}

							}
, 							{
								"patchline" : 								{
									"destination" : [ "obj-41", 0 ],
									"source" : [ "obj-40", 0 ]
								}

							}
, 							{
								"patchline" : 								{
									"destination" : [ "obj-42", 0 ],
									"source" : [ "obj-41", 0 ]
								}

							}
, 							{
								"patchline" : 								{
									"destination" : [ "obj-81", 0 ],
									"source" : [ "obj-42", 0 ]
								}

							}
, 							{
								"patchline" : 								{
									"destination" : [ "obj-78", 0 ],
									"source" : [ "obj-57", 0 ]
								}

							}
, 							{
								"patchline" : 								{
									"destination" : [ "obj-79", 0 ],
									"source" : [ "obj-61", 0 ]
								}

							}
, 							{
								"patchline" : 								{
									"destination" : [ "obj-79", 0 ],
									"source" : [ "obj-69", 0 ]
								}

							}
, 							{
								"patchline" : 								{
									"destination" : [ "obj-79", 0 ],
									"source" : [ "obj-70", 0 ]
								}

							}
, 							{
								"patchline" : 								{
									"destination" : [ "obj-30", 0 ],
									"midpoints" : [ 91.0, 152.5, 110.305358564853577, 152.5, 110.305358564853577, 107.5, 470.305358564853577, 107.5, 470.305358564853577, 101.5, 494.455602836608705, 101.5 ],
									"source" : [ "obj-71", 3 ]
								}

							}
, 							{
								"patchline" : 								{
									"destination" : [ "obj-61", 0 ],
									"midpoints" : [ 80.5, 152.5, 349.968473351001649, 152.5 ],
									"source" : [ "obj-71", 2 ]
								}

							}
, 							{
								"patchline" : 								{
									"destination" : [ "obj-69", 0 ],
									"midpoints" : [ 70.0, 152.5, 238.492530322074799, 152.5 ],
									"source" : [ "obj-71", 1 ]
								}

							}
, 							{
								"patchline" : 								{
									"destination" : [ "obj-70", 0 ],
									"source" : [ "obj-71", 0 ]
								}

							}
, 							{
								"patchline" : 								{
									"destination" : [ "obj-40", 0 ],
									"source" : [ "obj-72", 0 ]
								}

							}
, 							{
								"patchline" : 								{
									"destination" : [ "obj-73", 1 ],
									"midpoints" : [ 274.492530322074799, 361.39830470085144, 415.492530322074799, 361.39830470085144 ],
									"source" : [ "obj-72", 1 ]
								}

							}
, 							{
								"patchline" : 								{
									"destination" : [ "obj-74", 0 ],
									"source" : [ "obj-73", 0 ]
								}

							}
, 							{
								"patchline" : 								{
									"destination" : [ "obj-57", 2 ],
									"source" : [ "obj-74", 0 ]
								}

							}
, 							{
								"patchline" : 								{
									"destination" : [ "obj-76", 0 ],
									"source" : [ "obj-78", 0 ]
								}

							}
, 							{
								"patchline" : 								{
									"destination" : [ "obj-72", 0 ],
									"source" : [ "obj-79", 0 ]
								}

							}
, 							{
								"patchline" : 								{
									"destination" : [ "obj-76", 0 ],
									"midpoints" : [ 266.492530322074799, 338.5, 215.305358564853577, 338.5, 215.305358564853577, 579.584747076034546, 243.055358564853577, 579.584747076034546 ],
									"source" : [ "obj-79", 1 ]
								}

							}
, 							{
								"patchline" : 								{
									"destination" : [ "obj-71", 0 ],
									"source" : [ "obj-80", 0 ]
								}

							}
, 							{
								"patchline" : 								{
									"destination" : [ "obj-57", 0 ],
									"midpoints" : [ 250.669002628326325, 485.5, 243.055358564853577, 485.5 ],
									"source" : [ "obj-81", 1 ]
								}

							}
, 							{
								"patchline" : 								{
									"destination" : [ "obj-73", 0 ],
									"midpoints" : [ 238.669002628326325, 473.5, 371.305358564853577, 473.5, 371.305358564853577, 394.923728227615356, 396.492530322074799, 394.923728227615356 ],
									"source" : [ "obj-81", 0 ]
								}

							}
 ],
						"styles" : [ 							{
								"name" : "evening_coffee",
								"default" : 								{
									"selectioncolor" : [ 0.0, 0.874509803921569, 1.0, 1.0 ],
									"color" : [ 0.768627450980392, 0.682352941176471, 0.682352941176471, 1.0 ],
									"accentcolor" : [ 0.211764705882353, 0.184313725490196, 0.282352941176471, 1.0 ],
									"locked_bgcolor" : [ 0.003921568627451, 0.035294117647059, 0.007843137254902, 1.0 ],
									"bgcolor" : [ 0.231372549019608, 0.23921568627451, 0.443137254901961, 0.5 ],
									"elementcolor" : [ 0.215686274509804, 0.266666666666667, 0.27843137254902, 1.0 ],
									"editing_bgcolor" : [ 0.086274509803922, 0.058823529411765, 0.007843137254902, 1.0 ],
									"clearcolor" : [ 0.058823529411765, 0.0, 0.094117647058824, 0.3 ],
									"textcolor_inverse" : [ 0.843137254901961, 0.870588235294118, 0.850980392156863, 1.0 ],
									"textcolor" : [ 0.886274509803922, 0.862745098039216, 0.890196078431372, 1.0 ],
									"bgfillcolor" : 									{
										"type" : "gradient",
										"color" : [ 0.2, 0.2, 0.2, 1.0 ],
										"color1" : [ 0.156862745098039, 0.188235294117647, 0.325490196078431, 1.0 ],
										"color2" : [ 0.298039215686275, 0.23921568627451, 0.23921568627451, 1.0 ],
										"angle" : 270.0,
										"proportion" : 0.5,
										"autogradient" : 0.0
									}

								}
,
								"parentstyle" : "",
								"multi" : 0
							}
 ]
					}
,
					"patching_rect" : [ 451.572916751106391, 296.316894468275677, 99.0, 22.0 ],
					"saved_object_attributes" : 					{
						"description" : "",
						"digest" : "",
						"globalpatchername" : "",
						"style" : "evening_coffee",
						"tags" : ""
					}
,
					"text" : "p setDisplayArgs"
				}

			}
, 			{
				"box" : 				{
					"comment" : "keyInput",
					"id" : "obj-162",
					"index" : 0,
					"maxclass" : "inlet",
					"numinlets" : 0,
					"numoutlets" : 1,
					"outlettype" : [ "" ],
					"patching_rect" : [ 20.152542352676392, 351.316894468275677, 30.0, 30.0 ]
				}

			}
, 			{
				"box" : 				{
					"id" : "obj-20",
					"maxclass" : "newobj",
					"numinlets" : 2,
					"numoutlets" : 2,
					"outlettype" : [ "", "" ],
					"patching_rect" : [ 188.464307594299385, 242.867303790702408, 59.0, 22.0 ],
					"text" : "route text"
				}

			}
, 			{
				"box" : 				{
					"id" : "obj-150",
					"maxclass" : "newobj",
					"numinlets" : 1,
					"numoutlets" : 1,
					"outlettype" : [ "" ],
					"patcher" : 					{
						"fileversion" : 1,
						"appversion" : 						{
							"major" : 8,
							"minor" : 1,
							"revision" : 11,
							"architecture" : "x64",
							"modernui" : 1
						}
,
						"classnamespace" : "box",
						"rect" : [ 42.0, 85.0, 2492.0, 1289.0 ],
						"bglocked" : 0,
						"openinpresentation" : 0,
						"default_fontsize" : 12.0,
						"default_fontface" : 0,
						"default_fontname" : "Arial",
						"gridonopen" : 1,
						"gridsize" : [ 15.0, 15.0 ],
						"gridsnaponopen" : 1,
						"objectsnaponopen" : 1,
						"statusbarvisible" : 2,
						"toolbarvisible" : 1,
						"lefttoolbarpinned" : 0,
						"toptoolbarpinned" : 0,
						"righttoolbarpinned" : 0,
						"bottomtoolbarpinned" : 0,
						"toolbars_unpinned_last_save" : 0,
						"tallnewobj" : 0,
						"boxanimatetime" : 200,
						"enablehscroll" : 1,
						"enablevscroll" : 1,
						"devicewidth" : 0.0,
						"description" : "",
						"digest" : "",
						"tags" : "",
						"style" : "evening_coffee",
						"subpatcher_template" : "",
						"assistshowspatchername" : 0,
						"visible" : 1,
						"boxes" : [ 							{
								"box" : 								{
									"id" : "obj-8",
									"maxclass" : "newobj",
									"numinlets" : 3,
									"numoutlets" : 2,
									"outlettype" : [ "int", "int" ],
									"patching_rect" : [ 386.39024543762207, 75.514248164760602, 71.0, 22.0 ],
									"text" : "split -33 -44"
								}

							}
, 							{
								"box" : 								{
									"id" : "obj-7",
									"maxclass" : "newobj",
									"numinlets" : 1,
									"numoutlets" : 0,
									"patching_rect" : [ 386.39024543762207, 179.223637250793445, 85.0, 22.0 ],
									"text" : "s defaultArgUI"
								}

							}
, 							{
								"box" : 								{
									"id" : "obj-1",
									"maxclass" : "newobj",
									"numinlets" : 2,
									"numoutlets" : 1,
									"outlettype" : [ "int" ],
									"patching_rect" : [ 386.39024543762207, 101.611815750598907, 37.0, 22.0 ],
									"text" : "!- -33"
								}

							}
, 							{
								"box" : 								{
									"comment" : "",
									"id" : "obj-116",
									"index" : 1,
									"maxclass" : "outlet",
									"numinlets" : 1,
									"numoutlets" : 0,
									"patching_rect" : [ 438.39024543762207, 127.611815750598907, 30.0, 30.0 ]
								}

							}
, 							{
								"box" : 								{
									"id" : "obj-4",
									"maxclass" : "newobj",
									"numinlets" : 1,
									"numoutlets" : 1,
									"outlettype" : [ "int" ],
									"patcher" : 									{
										"fileversion" : 1,
										"appversion" : 										{
											"major" : 8,
											"minor" : 1,
											"revision" : 11,
											"architecture" : "x64",
											"modernui" : 1
										}
,
										"classnamespace" : "box",
										"rect" : [ 289.0, 173.0, 2348.0, 1301.0 ],
										"bglocked" : 0,
										"openinpresentation" : 0,
										"default_fontsize" : 12.0,
										"default_fontface" : 0,
										"default_fontname" : "Arial",
										"gridonopen" : 1,
										"gridsize" : [ 15.0, 15.0 ],
										"gridsnaponopen" : 1,
										"objectsnaponopen" : 1,
										"statusbarvisible" : 2,
										"toolbarvisible" : 1,
										"lefttoolbarpinned" : 0,
										"toptoolbarpinned" : 0,
										"righttoolbarpinned" : 0,
										"bottomtoolbarpinned" : 0,
										"toolbars_unpinned_last_save" : 0,
										"tallnewobj" : 0,
										"boxanimatetime" : 200,
										"enablehscroll" : 1,
										"enablevscroll" : 1,
										"devicewidth" : 0.0,
										"description" : "",
										"digest" : "",
										"tags" : "",
										"style" : "evening_coffee",
										"subpatcher_template" : "",
										"assistshowspatchername" : 0,
										"visible" : 1,
										"boxes" : [ 											{
												"box" : 												{
													"id" : "obj-2",
													"maxclass" : "newobj",
													"numinlets" : 1,
													"numoutlets" : 1,
													"outlettype" : [ "" ],
													"patching_rect" : [ 206.0, 176.0, 121.0, 22.0 ],
													"text" : "if $i1 <500 then bang"
												}

											}
, 											{
												"box" : 												{
													"id" : "obj-1",
													"maxclass" : "newobj",
													"numinlets" : 2,
													"numoutlets" : 2,
													"outlettype" : [ "float", "" ],
													"patching_rect" : [ 205.75, 149.0, 35.0, 22.0 ],
													"text" : "timer"
												}

											}
, 											{
												"box" : 												{
													"id" : "obj-19",
													"maxclass" : "newobj",
													"numinlets" : 1,
													"numoutlets" : 0,
													"patching_rect" : [ 383.125, 133.0, 109.0, 22.0 ],
													"text" : "s routineTextEditUI"
												}

											}
, 											{
												"box" : 												{
													"id" : "obj-7",
													"maxclass" : "newobj",
													"numinlets" : 1,
													"numoutlets" : 0,
													"patching_rect" : [ 205.75, 224.710523009300232, 113.0, 22.0 ],
													"text" : "s deleteComponent"
												}

											}
, 											{
												"box" : 												{
													"id" : "obj-329",
													"maxclass" : "message",
													"numinlets" : 2,
													"numoutlets" : 1,
													"outlettype" : [ "" ],
													"patching_rect" : [ 383.125, 105.97930820286274, 40.0, 22.0 ],
													"text" : "select"
												}

											}
, 											{
												"box" : 												{
													"comment" : "",
													"id" : "obj-9",
													"index" : 1,
													"maxclass" : "outlet",
													"numinlets" : 1,
													"numoutlets" : 0,
													"patching_rect" : [ 501.125, 133.0, 30.0, 30.0 ]
												}

											}
, 											{
												"box" : 												{
													"id" : "obj-6",
													"maxclass" : "newobj",
													"numinlets" : 2,
													"numoutlets" : 1,
													"outlettype" : [ "int" ],
													"patching_rect" : [ 501.125, 107.289476990699768, 29.5, 22.0 ],
													"text" : "- 4"
												}

											}
, 											{
												"box" : 												{
													"id" : "obj-74",
													"maxclass" : "newobj",
													"numinlets" : 6,
													"numoutlets" : 6,
													"outlettype" : [ "bang", "bang", "bang", "bang", "bang", "" ],
													"patching_rect" : [ 27.5, 82.0, 464.625, 22.0 ],
													"text" : "sel 0 1 2 3 4"
												}

											}
, 											{
												"box" : 												{
													"comment" : "",
													"id" : "obj-85",
													"index" : 1,
													"maxclass" : "inlet",
													"numinlets" : 0,
													"numoutlets" : 1,
													"outlettype" : [ "int" ],
													"patching_rect" : [ 27.5, 48.0, 30.0, 30.0 ]
												}

											}
 ],
										"lines" : [ 											{
												"patchline" : 												{
													"destination" : [ "obj-2", 0 ],
													"source" : [ "obj-1", 0 ]
												}

											}
, 											{
												"patchline" : 												{
													"destination" : [ "obj-7", 0 ],
													"source" : [ "obj-2", 0 ]
												}

											}
, 											{
												"patchline" : 												{
													"destination" : [ "obj-19", 0 ],
													"source" : [ "obj-329", 0 ]
												}

											}
, 											{
												"patchline" : 												{
													"destination" : [ "obj-9", 0 ],
													"source" : [ "obj-6", 0 ]
												}

											}
, 											{
												"patchline" : 												{
													"destination" : [ "obj-1", 1 ],
													"order" : 0,
													"source" : [ "obj-74", 2 ]
												}

											}
, 											{
												"patchline" : 												{
													"destination" : [ "obj-1", 0 ],
													"order" : 1,
													"source" : [ "obj-74", 2 ]
												}

											}
, 											{
												"patchline" : 												{
													"destination" : [ "obj-329", 0 ],
													"source" : [ "obj-74", 4 ]
												}

											}
, 											{
												"patchline" : 												{
													"destination" : [ "obj-6", 0 ],
													"source" : [ "obj-74", 5 ]
												}

											}
, 											{
												"patchline" : 												{
													"destination" : [ "obj-74", 0 ],
													"source" : [ "obj-85", 0 ]
												}

											}
 ],
										"styles" : [ 											{
												"name" : "evening_coffee",
												"default" : 												{
													"selectioncolor" : [ 0.0, 0.874509803921569, 1.0, 1.0 ],
													"color" : [ 0.768627450980392, 0.682352941176471, 0.682352941176471, 1.0 ],
													"accentcolor" : [ 0.211764705882353, 0.184313725490196, 0.282352941176471, 1.0 ],
													"locked_bgcolor" : [ 0.003921568627451, 0.035294117647059, 0.007843137254902, 1.0 ],
													"bgcolor" : [ 0.231372549019608, 0.23921568627451, 0.443137254901961, 0.5 ],
													"elementcolor" : [ 0.215686274509804, 0.266666666666667, 0.27843137254902, 1.0 ],
													"editing_bgcolor" : [ 0.086274509803922, 0.058823529411765, 0.007843137254902, 1.0 ],
													"clearcolor" : [ 0.058823529411765, 0.0, 0.094117647058824, 0.3 ],
													"textcolor_inverse" : [ 0.843137254901961, 0.870588235294118, 0.850980392156863, 1.0 ],
													"textcolor" : [ 0.886274509803922, 0.862745098039216, 0.890196078431372, 1.0 ],
													"bgfillcolor" : 													{
														"type" : "gradient",
														"color" : [ 0.2, 0.2, 0.2, 1.0 ],
														"color1" : [ 0.156862745098039, 0.188235294117647, 0.325490196078431, 1.0 ],
														"color2" : [ 0.298039215686275, 0.23921568627451, 0.23921568627451, 1.0 ],
														"angle" : 270.0,
														"proportion" : 0.5,
														"autogradient" : 0.0
													}

												}
,
												"parentstyle" : "",
												"multi" : 0
											}
 ]
									}
,
									"patching_rect" : [ 468.39024543762207, 153.223637250793445, 71.0, 22.0 ],
									"saved_object_attributes" : 									{
										"description" : "",
										"digest" : "",
										"globalpatchername" : "",
										"style" : "evening_coffee",
										"tags" : ""
									}
,
									"text" : "p command"
								}

							}
, 							{
								"box" : 								{
									"id" : "obj-99",
									"maxclass" : "newobj",
									"numinlets" : 1,
									"numoutlets" : 1,
									"outlettype" : [ "int" ],
									"patcher" : 									{
										"fileversion" : 1,
										"appversion" : 										{
											"major" : 8,
											"minor" : 1,
											"revision" : 11,
											"architecture" : "x64",
											"modernui" : 1
										}
,
										"classnamespace" : "box",
										"rect" : [ 59.0, 107.0, 640.0, 480.0 ],
										"bglocked" : 0,
										"openinpresentation" : 0,
										"default_fontsize" : 12.0,
										"default_fontface" : 0,
										"default_fontname" : "Arial",
										"gridonopen" : 1,
										"gridsize" : [ 15.0, 15.0 ],
										"gridsnaponopen" : 1,
										"objectsnaponopen" : 1,
										"statusbarvisible" : 2,
										"toolbarvisible" : 1,
										"lefttoolbarpinned" : 0,
										"toptoolbarpinned" : 0,
										"righttoolbarpinned" : 0,
										"bottomtoolbarpinned" : 0,
										"toolbars_unpinned_last_save" : 0,
										"tallnewobj" : 0,
										"boxanimatetime" : 200,
										"enablehscroll" : 1,
										"enablevscroll" : 1,
										"devicewidth" : 0.0,
										"description" : "",
										"digest" : "",
										"tags" : "",
										"style" : "evening_coffee",
										"subpatcher_template" : "",
										"assistshowspatchername" : 0,
										"boxes" : [ 											{
												"box" : 												{
													"comment" : "",
													"id" : "obj-4",
													"index" : 1,
													"maxclass" : "outlet",
													"numinlets" : 1,
													"numoutlets" : 0,
													"patching_rect" : [ 295.981285452842712, 237.97930820286274, 30.0, 30.0 ]
												}

											}
, 											{
												"box" : 												{
													"id" : "obj-3",
													"maxclass" : "newobj",
													"numinlets" : 2,
													"numoutlets" : 1,
													"outlettype" : [ "int" ],
													"patching_rect" : [ 295.981285452842712, 211.97930820286274, 29.5, 22.0 ],
													"text" : "- 4"
												}

											}
, 											{
												"box" : 												{
													"id" : "obj-6",
													"maxclass" : "newobj",
													"numinlets" : 1,
													"numoutlets" : 0,
													"patching_rect" : [ 51.0, 326.777653465225285, 129.0, 22.0 ],
													"text" : "s routineComponentUI"
												}

											}
, 											{
												"box" : 												{
													"id" : "obj-1",
													"maxclass" : "newobj",
													"numinlets" : 1,
													"numoutlets" : 0,
													"patching_rect" : [ 214.481285452842712, 326.777653465225285, 111.0, 22.0 ],
													"text" : "s libraryCategoryUI"
												}

											}
, 											{
												"box" : 												{
													"id" : "obj-319",
													"maxclass" : "newobj",
													"numinlets" : 1,
													"numoutlets" : 1,
													"outlettype" : [ "next" ],
													"patching_rect" : [ 51.0, 211.97930820286274, 38.0, 22.0 ],
													"text" : "t next"
												}

											}
, 											{
												"box" : 												{
													"id" : "obj-321",
													"maxclass" : "newobj",
													"numinlets" : 1,
													"numoutlets" : 1,
													"outlettype" : [ "prev" ],
													"patching_rect" : [ 93.0, 211.97930820286274, 39.0, 22.0 ],
													"text" : "t prev"
												}

											}
, 											{
												"box" : 												{
													"id" : "obj-317",
													"maxclass" : "newobj",
													"numinlets" : 1,
													"numoutlets" : 2,
													"outlettype" : [ "int", "next" ],
													"patching_rect" : [ 132.481285452842712, 211.97930820286274, 48.0, 22.0 ],
													"text" : "t 0 next"
												}

											}
, 											{
												"box" : 												{
													"id" : "obj-313",
													"maxclass" : "newobj",
													"numinlets" : 1,
													"numoutlets" : 2,
													"outlettype" : [ "int", "prev" ],
													"patching_rect" : [ 184.481285452842712, 211.97930820286274, 49.0, 22.0 ],
													"text" : "t 0 prev"
												}

											}
, 											{
												"box" : 												{
													"id" : "obj-295",
													"maxclass" : "newobj",
													"numinlets" : 5,
													"numoutlets" : 5,
													"outlettype" : [ "bang", "bang", "bang", "bang", "" ],
													"patching_rect" : [ 51.0, 162.0, 64.0, 22.0 ],
													"text" : "sel 0 1 2 3"
												}

											}
, 											{
												"box" : 												{
													"comment" : "",
													"id" : "obj-2",
													"index" : 1,
													"maxclass" : "inlet",
													"numinlets" : 0,
													"numoutlets" : 1,
													"outlettype" : [ "int" ],
													"patching_rect" : [ 51.0, 128.0, 30.0, 30.0 ]
												}

											}
 ],
										"lines" : [ 											{
												"patchline" : 												{
													"destination" : [ "obj-295", 0 ],
													"source" : [ "obj-2", 0 ]
												}

											}
, 											{
												"patchline" : 												{
													"destination" : [ "obj-3", 0 ],
													"midpoints" : [ 105.5, 198.0, 305.481285452842712, 198.0 ],
													"source" : [ "obj-295", 4 ]
												}

											}
, 											{
												"patchline" : 												{
													"destination" : [ "obj-313", 0 ],
													"midpoints" : [ 94.25, 204.0, 193.981285452842712, 204.0 ],
													"source" : [ "obj-295", 3 ]
												}

											}
, 											{
												"patchline" : 												{
													"destination" : [ "obj-317", 0 ],
													"midpoints" : [ 83.0, 205.97930820286274, 141.981285452842712, 205.97930820286274 ],
													"source" : [ "obj-295", 2 ]
												}

											}
, 											{
												"patchline" : 												{
													"destination" : [ "obj-319", 0 ],
													"midpoints" : [ 60.5, 189.97930820286274, 60.5, 189.97930820286274 ],
													"source" : [ "obj-295", 0 ]
												}

											}
, 											{
												"patchline" : 												{
													"destination" : [ "obj-321", 0 ],
													"midpoints" : [ 71.75, 198.97930820286274, 137.75, 198.97930820286274, 137.75, 189.97930820286274, 102.5, 189.97930820286274 ],
													"source" : [ "obj-295", 1 ]
												}

											}
, 											{
												"patchline" : 												{
													"destination" : [ "obj-4", 0 ],
													"source" : [ "obj-3", 0 ]
												}

											}
, 											{
												"patchline" : 												{
													"destination" : [ "obj-1", 0 ],
													"source" : [ "obj-313", 1 ]
												}

											}
, 											{
												"patchline" : 												{
													"destination" : [ "obj-6", 0 ],
													"midpoints" : [ 193.981285452842712, 313.0, 60.5, 313.0 ],
													"source" : [ "obj-313", 0 ]
												}

											}
, 											{
												"patchline" : 												{
													"destination" : [ "obj-1", 0 ],
													"midpoints" : [ 170.981285452842712, 298.0, 223.981285452842712, 298.0 ],
													"source" : [ "obj-317", 1 ]
												}

											}
, 											{
												"patchline" : 												{
													"destination" : [ "obj-6", 0 ],
													"midpoints" : [ 141.981285452842712, 313.0, 60.5, 313.0 ],
													"source" : [ "obj-317", 0 ]
												}

											}
, 											{
												"patchline" : 												{
													"destination" : [ "obj-6", 0 ],
													"source" : [ "obj-319", 0 ]
												}

											}
, 											{
												"patchline" : 												{
													"destination" : [ "obj-6", 0 ],
													"midpoints" : [ 102.5, 313.0, 60.5, 313.0 ],
													"source" : [ "obj-321", 0 ]
												}

											}
 ],
										"styles" : [ 											{
												"name" : "evening_coffee",
												"default" : 												{
													"selectioncolor" : [ 0.0, 0.874509803921569, 1.0, 1.0 ],
													"color" : [ 0.768627450980392, 0.682352941176471, 0.682352941176471, 1.0 ],
													"accentcolor" : [ 0.211764705882353, 0.184313725490196, 0.282352941176471, 1.0 ],
													"locked_bgcolor" : [ 0.003921568627451, 0.035294117647059, 0.007843137254902, 1.0 ],
													"bgcolor" : [ 0.231372549019608, 0.23921568627451, 0.443137254901961, 0.5 ],
													"elementcolor" : [ 0.215686274509804, 0.266666666666667, 0.27843137254902, 1.0 ],
													"editing_bgcolor" : [ 0.086274509803922, 0.058823529411765, 0.007843137254902, 1.0 ],
													"clearcolor" : [ 0.058823529411765, 0.0, 0.094117647058824, 0.3 ],
													"textcolor_inverse" : [ 0.843137254901961, 0.870588235294118, 0.850980392156863, 1.0 ],
													"textcolor" : [ 0.886274509803922, 0.862745098039216, 0.890196078431372, 1.0 ],
													"bgfillcolor" : 													{
														"type" : "gradient",
														"color" : [ 0.2, 0.2, 0.2, 1.0 ],
														"color1" : [ 0.156862745098039, 0.188235294117647, 0.325490196078431, 1.0 ],
														"color2" : [ 0.298039215686275, 0.23921568627451, 0.23921568627451, 1.0 ],
														"angle" : 270.0,
														"proportion" : 0.5,
														"autogradient" : 0.0
													}

												}
,
												"parentstyle" : "",
												"multi" : 0
											}
 ]
									}
,
									"patching_rect" : [ 468.39024543762207, 127.611815750598907, 73.0, 22.0 ],
									"saved_object_attributes" : 									{
										"description" : "",
										"digest" : "",
										"globalpatchername" : "",
										"style" : "evening_coffee",
										"tags" : ""
									}
,
									"text" : "p navigation"
								}

							}
, 							{
								"box" : 								{
									"id" : "obj-87",
									"maxclass" : "newobj",
									"numinlets" : 1,
									"numoutlets" : 2,
									"outlettype" : [ "", "int" ],
									"patcher" : 									{
										"fileversion" : 1,
										"appversion" : 										{
											"major" : 8,
											"minor" : 1,
											"revision" : 11,
											"architecture" : "x64",
											"modernui" : 1
										}
,
										"classnamespace" : "box",
										"rect" : [ 42.0, 85.0, 2492.0, 1289.0 ],
										"bglocked" : 0,
										"openinpresentation" : 0,
										"default_fontsize" : 12.0,
										"default_fontface" : 0,
										"default_fontname" : "Arial",
										"gridonopen" : 1,
										"gridsize" : [ 15.0, 15.0 ],
										"gridsnaponopen" : 1,
										"objectsnaponopen" : 1,
										"statusbarvisible" : 2,
										"toolbarvisible" : 1,
										"lefttoolbarpinned" : 0,
										"toptoolbarpinned" : 0,
										"righttoolbarpinned" : 0,
										"bottomtoolbarpinned" : 0,
										"toolbars_unpinned_last_save" : 0,
										"tallnewobj" : 0,
										"boxanimatetime" : 200,
										"enablehscroll" : 1,
										"enablevscroll" : 1,
										"devicewidth" : 0.0,
										"description" : "",
										"digest" : "",
										"tags" : "",
										"style" : "evening_coffee",
										"subpatcher_template" : "",
										"assistshowspatchername" : 0,
										"visible" : 1,
										"boxes" : [ 											{
												"box" : 												{
													"id" : "obj-1",
													"maxclass" : "newobj",
													"numinlets" : 1,
													"numoutlets" : 0,
													"patching_rect" : [ 446.0, 200.777653465225285, 87.0, 22.0 ],
													"text" : "s deleteLibrary"
												}

											}
, 											{
												"box" : 												{
													"id" : "obj-2",
													"maxclass" : "message",
													"numinlets" : 2,
													"numoutlets" : 1,
													"outlettype" : [ "" ],
													"patching_rect" : [ 634.0, 226.777653465225285, 40.0, 22.0 ],
													"text" : "select"
												}

											}
, 											{
												"box" : 												{
													"id" : "obj-38",
													"maxclass" : "message",
													"numinlets" : 2,
													"numoutlets" : 1,
													"outlettype" : [ "" ],
													"patching_rect" : [ 779.0, 196.0, 65.0, 22.0 ],
													"text" : "append $1"
												}

											}
, 											{
												"box" : 												{
													"comment" : "",
													"id" : "obj-33",
													"index" : 1,
													"maxclass" : "outlet",
													"numinlets" : 1,
													"numoutlets" : 0,
													"patching_rect" : [ 634.0, 301.893929014160221, 30.0, 30.0 ]
												}

											}
, 											{
												"box" : 												{
													"comment" : "",
													"id" : "obj-25",
													"index" : 2,
													"maxclass" : "outlet",
													"numinlets" : 1,
													"numoutlets" : 0,
													"patching_rect" : [ 709.0, 226.777653465225285, 30.0, 30.0 ]
												}

											}
, 											{
												"box" : 												{
													"id" : "obj-24",
													"maxclass" : "newobj",
													"numinlets" : 2,
													"numoutlets" : 1,
													"outlettype" : [ "int" ],
													"patching_rect" : [ 709.0, 200.777653465225285, 29.5, 22.0 ],
													"text" : "- 4"
												}

											}
, 											{
												"box" : 												{
													"id" : "obj-31",
													"maxclass" : "newobj",
													"numinlets" : 1,
													"numoutlets" : 1,
													"outlettype" : [ "" ],
													"patching_rect" : [ 848.0, 196.0, 91.0, 22.0 ],
													"text" : "loadmess clear"
												}

											}
, 											{
												"box" : 												{
													"id" : "obj-42",
													"maxclass" : "newobj",
													"numinlets" : 1,
													"numoutlets" : 0,
													"patching_rect" : [ 592.146161576112036, 348.893929014160221, 89.0, 22.0 ],
													"text" : "s argContextUI"
												}

											}
, 											{
												"box" : 												{
													"id" : "obj-26",
													"maxclass" : "newobj",
													"numinlets" : 1,
													"numoutlets" : 0,
													"patching_rect" : [ 777.5, 247.116275548934937, 109.0, 22.0 ],
													"text" : "s routineTextEditUI"
												}

											}
, 											{
												"box" : 												{
													"id" : "obj-5",
													"maxclass" : "newobj",
													"numinlets" : 0,
													"numoutlets" : 1,
													"outlettype" : [ "" ],
													"patching_rect" : [ 736.0, 110.777653465225285, 72.0, 22.0 ],
													"text" : "r currentArg"
												}

											}
, 											{
												"box" : 												{
													"id" : "obj-106",
													"maxclass" : "newobj",
													"numinlets" : 1,
													"numoutlets" : 5,
													"outlettype" : [ "", "", "", "", "" ],
													"patching_rect" : [ 736.0, 136.777653465225285, 102.0, 22.0 ],
													"text" : "regexp ^.+(?=:\\\\s)"
												}

											}
, 											{
												"box" : 												{
													"id" : "obj-32",
													"maxclass" : "message",
													"numinlets" : 2,
													"numoutlets" : 1,
													"outlettype" : [ "" ],
													"patching_rect" : [ 598.146161576112036, 200.777653465225285, 32.0, 22.0 ],
													"text" : "prev"
												}

											}
, 											{
												"box" : 												{
													"id" : "obj-34",
													"maxclass" : "message",
													"numinlets" : 2,
													"numoutlets" : 1,
													"outlettype" : [ "" ],
													"patching_rect" : [ 556.646161576112036, 200.777653465225285, 37.5, 22.0 ],
													"text" : "next"
												}

											}
, 											{
												"box" : 												{
													"id" : "obj-28",
													"maxclass" : "newobj",
													"numinlets" : 5,
													"numoutlets" : 5,
													"outlettype" : [ "bang", "bang", "bang", "bang", "" ],
													"patching_rect" : [ 625.146161576112036, 87.99999425040437, 64.0, 22.0 ],
													"text" : "sel 0 1 2 3"
												}

											}
, 											{
												"box" : 												{
													"id" : "obj-9",
													"maxclass" : "newobj",
													"numinlets" : 2,
													"numoutlets" : 1,
													"outlettype" : [ "int" ],
													"patching_rect" : [ 625.146161576112036, 60.0, 32.0, 22.0 ],
													"text" : "+ 16"
												}

											}
, 											{
												"box" : 												{
													"comment" : "",
													"id" : "obj-85",
													"index" : 1,
													"maxclass" : "inlet",
													"numinlets" : 0,
													"numoutlets" : 1,
													"outlettype" : [ "int" ],
													"patching_rect" : [ 625.146161576112036, 23.0, 30.0, 30.0 ]
												}

											}
 ],
										"lines" : [ 											{
												"patchline" : 												{
													"destination" : [ "obj-38", 0 ],
													"source" : [ "obj-106", 2 ]
												}

											}
, 											{
												"patchline" : 												{
													"destination" : [ "obj-33", 0 ],
													"source" : [ "obj-2", 0 ]
												}

											}
, 											{
												"patchline" : 												{
													"destination" : [ "obj-25", 0 ],
													"source" : [ "obj-24", 0 ]
												}

											}
, 											{
												"patchline" : 												{
													"destination" : [ "obj-1", 0 ],
													"midpoints" : [ 634.646161576112036, 185.0, 455.5, 185.0 ],
													"source" : [ "obj-28", 0 ]
												}

											}
, 											{
												"patchline" : 												{
													"destination" : [ "obj-2", 0 ],
													"source" : [ "obj-28", 1 ]
												}

											}
, 											{
												"patchline" : 												{
													"destination" : [ "obj-24", 0 ],
													"midpoints" : [ 679.646161576112036, 159.0, 718.5, 159.0 ],
													"source" : [ "obj-28", 4 ]
												}

											}
, 											{
												"patchline" : 												{
													"destination" : [ "obj-32", 0 ],
													"midpoints" : [ 668.396161576112036, 129.0, 607.646161576112036, 129.0 ],
													"source" : [ "obj-28", 3 ]
												}

											}
, 											{
												"patchline" : 												{
													"destination" : [ "obj-34", 0 ],
													"midpoints" : [ 657.146161576112036, 128.0, 566.146161576112036, 128.0 ],
													"source" : [ "obj-28", 2 ]
												}

											}
, 											{
												"patchline" : 												{
													"destination" : [ "obj-26", 0 ],
													"midpoints" : [ 857.5, 234.0, 787.0, 234.0 ],
													"order" : 0,
													"source" : [ "obj-31", 0 ]
												}

											}
, 											{
												"patchline" : 												{
													"destination" : [ "obj-33", 0 ],
													"midpoints" : [ 857.5, 234.0, 750.0, 234.0, 750.0, 270.0, 705.0, 270.0, 705.0, 297.0, 643.5, 297.0 ],
													"order" : 1,
													"source" : [ "obj-31", 0 ]
												}

											}
, 											{
												"patchline" : 												{
													"destination" : [ "obj-42", 0 ],
													"midpoints" : [ 607.646161576112036, 247.199999690055847, 601.646161576112036, 247.199999690055847 ],
													"source" : [ "obj-32", 0 ]
												}

											}
, 											{
												"patchline" : 												{
													"destination" : [ "obj-42", 0 ],
													"midpoints" : [ 566.146161576112036, 226.99999988079071, 601.646161576112036, 226.99999988079071 ],
													"source" : [ "obj-34", 0 ]
												}

											}
, 											{
												"patchline" : 												{
													"destination" : [ "obj-26", 0 ],
													"source" : [ "obj-38", 0 ]
												}

											}
, 											{
												"patchline" : 												{
													"destination" : [ "obj-106", 0 ],
													"source" : [ "obj-5", 0 ]
												}

											}
, 											{
												"patchline" : 												{
													"destination" : [ "obj-9", 0 ],
													"source" : [ "obj-85", 0 ]
												}

											}
, 											{
												"patchline" : 												{
													"destination" : [ "obj-28", 0 ],
													"source" : [ "obj-9", 0 ]
												}

											}
 ],
										"styles" : [ 											{
												"name" : "evening_coffee",
												"default" : 												{
													"selectioncolor" : [ 0.0, 0.874509803921569, 1.0, 1.0 ],
													"color" : [ 0.768627450980392, 0.682352941176471, 0.682352941176471, 1.0 ],
													"accentcolor" : [ 0.211764705882353, 0.184313725490196, 0.282352941176471, 1.0 ],
													"locked_bgcolor" : [ 0.003921568627451, 0.035294117647059, 0.007843137254902, 1.0 ],
													"bgcolor" : [ 0.231372549019608, 0.23921568627451, 0.443137254901961, 0.5 ],
													"elementcolor" : [ 0.215686274509804, 0.266666666666667, 0.27843137254902, 1.0 ],
													"editing_bgcolor" : [ 0.086274509803922, 0.058823529411765, 0.007843137254902, 1.0 ],
													"clearcolor" : [ 0.058823529411765, 0.0, 0.094117647058824, 0.3 ],
													"textcolor_inverse" : [ 0.843137254901961, 0.870588235294118, 0.850980392156863, 1.0 ],
													"textcolor" : [ 0.886274509803922, 0.862745098039216, 0.890196078431372, 1.0 ],
													"bgfillcolor" : 													{
														"type" : "gradient",
														"color" : [ 0.2, 0.2, 0.2, 1.0 ],
														"color1" : [ 0.156862745098039, 0.188235294117647, 0.325490196078431, 1.0 ],
														"color2" : [ 0.298039215686275, 0.23921568627451, 0.23921568627451, 1.0 ],
														"angle" : 270.0,
														"proportion" : 0.5,
														"autogradient" : 0.0
													}

												}
,
												"parentstyle" : "",
												"multi" : 0
											}
 ]
									}
,
									"patching_rect" : [ 438.39024543762207, 101.611815750598907, 49.0, 22.0 ],
									"saved_object_attributes" : 									{
										"description" : "",
										"digest" : "",
										"globalpatchername" : "",
										"style" : "evening_coffee",
										"tags" : ""
									}
,
									"text" : "p target"
								}

							}
, 							{
								"box" : 								{
									"comment" : "",
									"id" : "obj-17",
									"index" : 1,
									"maxclass" : "inlet",
									"numinlets" : 0,
									"numoutlets" : 1,
									"outlettype" : [ "" ],
									"patching_rect" : [ 386.39024543762207, 37.514248164760602, 30.0, 30.0 ]
								}

							}
 ],
						"lines" : [ 							{
								"patchline" : 								{
									"destination" : [ "obj-7", 0 ],
									"source" : [ "obj-1", 0 ]
								}

							}
, 							{
								"patchline" : 								{
									"destination" : [ "obj-8", 0 ],
									"source" : [ "obj-17", 0 ]
								}

							}
, 							{
								"patchline" : 								{
									"destination" : [ "obj-1", 0 ],
									"source" : [ "obj-8", 0 ]
								}

							}
, 							{
								"patchline" : 								{
									"destination" : [ "obj-87", 0 ],
									"source" : [ "obj-8", 1 ]
								}

							}
, 							{
								"patchline" : 								{
									"destination" : [ "obj-116", 0 ],
									"source" : [ "obj-87", 0 ]
								}

							}
, 							{
								"patchline" : 								{
									"destination" : [ "obj-99", 0 ],
									"source" : [ "obj-87", 1 ]
								}

							}
, 							{
								"patchline" : 								{
									"destination" : [ "obj-4", 0 ],
									"source" : [ "obj-99", 0 ]
								}

							}
 ],
						"styles" : [ 							{
								"name" : "evening_coffee",
								"default" : 								{
									"selectioncolor" : [ 0.0, 0.874509803921569, 1.0, 1.0 ],
									"color" : [ 0.768627450980392, 0.682352941176471, 0.682352941176471, 1.0 ],
									"accentcolor" : [ 0.211764705882353, 0.184313725490196, 0.282352941176471, 1.0 ],
									"locked_bgcolor" : [ 0.003921568627451, 0.035294117647059, 0.007843137254902, 1.0 ],
									"bgcolor" : [ 0.231372549019608, 0.23921568627451, 0.443137254901961, 0.5 ],
									"elementcolor" : [ 0.215686274509804, 0.266666666666667, 0.27843137254902, 1.0 ],
									"editing_bgcolor" : [ 0.086274509803922, 0.058823529411765, 0.007843137254902, 1.0 ],
									"clearcolor" : [ 0.058823529411765, 0.0, 0.094117647058824, 0.3 ],
									"textcolor_inverse" : [ 0.843137254901961, 0.870588235294118, 0.850980392156863, 1.0 ],
									"textcolor" : [ 0.886274509803922, 0.862745098039216, 0.890196078431372, 1.0 ],
									"bgfillcolor" : 									{
										"type" : "gradient",
										"color" : [ 0.2, 0.2, 0.2, 1.0 ],
										"color1" : [ 0.156862745098039, 0.188235294117647, 0.325490196078431, 1.0 ],
										"color2" : [ 0.298039215686275, 0.23921568627451, 0.23921568627451, 1.0 ],
										"angle" : 270.0,
										"proportion" : 0.5,
										"autogradient" : 0.0
									}

								}
,
								"parentstyle" : "",
								"multi" : 0
							}
 ]
					}
,
					"patching_rect" : [ 20.152542352676392, 384.745044395327568, 77.690586417913437, 22.0 ],
					"saved_object_attributes" : 					{
						"description" : "",
						"digest" : "",
						"globalpatchername" : "",
						"style" : "evening_coffee",
						"tags" : ""
					}
,
					"text" : "p parseInput"
				}

			}
, 			{
				"box" : 				{
					"bgcolor" : [ 0.0, 0.0, 0.0, 0.19 ],
					"gradient" : 0.14,
					"id" : "obj-17",
					"margin" : 18,
					"maxclass" : "tab",
					"mode" : 1,
					"numinlets" : 1,
					"numoutlets" : 3,
					"outlettype" : [ "int", "", "" ],
					"parameter_enable" : 0,
					"patching_rect" : [ 451.572916751106391, 134.203359963550156, 101.270587539672761, 155.972157180309296 ],
					"presentation" : 1,
					"presentation_rect" : [ 244.738424847523447, 172.123977731913328, 99.0, 89.507856883108616 ],
					"spacing_x" : 2.06,
					"tabcolor" : [ 0.23921568627451, 0.207843137254902, 0.196078431372549, 1.0 ],
					"tabs" : [ "interpreter", "stage", "global", "production" ]
				}

			}
, 			{
				"box" : 				{
					"fontface" : 0,
					"fontname" : "Arial",
					"fontsize" : 12.0,
					"headerheight" : 32,
					"headerlabel" : "Context Variables",
					"id" : "obj-15",
					"items" : [ "iCtx.input.letters:", "string", ",", "iCtx.output.letters:", "string", ",", "iCtx.input.parameters:", "number[][]", ",", "iCtx.output.parameters:", "number[][]", ",", "iCtx.messages:", "string[]" ],
					"maxclass" : "chooser",
					"multiselect" : 0,
					"numinlets" : 1,
					"numoutlets" : 6,
					"outlettype" : [ "", "", "", "", "", "" ],
					"parameter_enable" : 0,
					"patching_rect" : [ 557.547519927223561, 129.204443850643429, 294.025396823882829, 299.942146586432045 ],
					"presentation" : 1,
					"presentation_rect" : [ 353.182239527503725, 7.388947229832411, 223.505277246236801, 253.242887385189533 ],
					"selectedclick" : 1,
					"textjustification" : 0
				}

			}
, 			{
				"box" : 				{
					"id" : "obj-114",
					"maxclass" : "newobj",
					"numinlets" : 1,
					"numoutlets" : 1,
					"outlettype" : [ "" ],
					"patcher" : 					{
						"fileversion" : 1,
						"appversion" : 						{
							"major" : 8,
							"minor" : 1,
							"revision" : 11,
							"architecture" : "x64",
							"modernui" : 1
						}
,
						"classnamespace" : "box",
						"rect" : [ 42.0, 85.0, 1890.0, 1273.0 ],
						"bglocked" : 0,
						"openinpresentation" : 0,
						"default_fontsize" : 12.0,
						"default_fontface" : 0,
						"default_fontname" : "Arial",
						"gridonopen" : 1,
						"gridsize" : [ 15.0, 15.0 ],
						"gridsnaponopen" : 1,
						"objectsnaponopen" : 1,
						"statusbarvisible" : 2,
						"toolbarvisible" : 1,
						"lefttoolbarpinned" : 0,
						"toptoolbarpinned" : 0,
						"righttoolbarpinned" : 0,
						"bottomtoolbarpinned" : 0,
						"toolbars_unpinned_last_save" : 0,
						"tallnewobj" : 0,
						"boxanimatetime" : 200,
						"enablehscroll" : 1,
						"enablevscroll" : 1,
						"devicewidth" : 0.0,
						"description" : "",
						"digest" : "",
						"tags" : "",
						"style" : "evening_coffee",
						"subpatcher_template" : "",
						"assistshowspatchername" : 0,
						"visible" : 1,
						"boxes" : [ 							{
								"box" : 								{
									"id" : "obj-8",
									"maxclass" : "button",
									"numinlets" : 1,
									"numoutlets" : 1,
									"outlettype" : [ "bang" ],
									"parameter_enable" : 0,
									"patching_rect" : [ 647.0, 388.0, 24.0, 24.0 ]
								}

							}
, 							{
								"box" : 								{
									"id" : "obj-29",
									"maxclass" : "newobj",
									"numinlets" : 1,
									"numoutlets" : 1,
									"outlettype" : [ "" ],
									"patching_rect" : [ 267.0, 786.963338548495358, 53.0, 22.0 ],
									"text" : "prepend"
								}

							}
, 							{
								"box" : 								{
									"id" : "obj-17",
									"maxclass" : "message",
									"numinlets" : 2,
									"numoutlets" : 1,
									"outlettype" : [ "" ],
									"patching_rect" : [ 435.0, 737.0, 41.0, 22.0 ],
									"text" : "set $1"
								}

							}
, 							{
								"box" : 								{
									"id" : "obj-24",
									"maxclass" : "newobj",
									"numinlets" : 0,
									"numoutlets" : 1,
									"outlettype" : [ "" ],
									"patching_rect" : [ 435.0, 704.914402056129802, 111.0, 22.0 ],
									"text" : "r currentLibraryKey"
								}

							}
, 							{
								"box" : 								{
									"id" : "obj-13",
									"maxclass" : "newobj",
									"numinlets" : 2,
									"numoutlets" : 2,
									"outlettype" : [ "", "" ],
									"patching_rect" : [ 299.5, 659.0, 59.0, 22.0 ],
									"text" : "route text"
								}

							}
, 							{
								"box" : 								{
									"id" : "obj-12",
									"maxclass" : "message",
									"numinlets" : 2,
									"numoutlets" : 1,
									"outlettype" : [ "" ],
									"patching_rect" : [ 381.0, 733.0, 70.0, 22.0 ],
									"text" : "set discrete"
								}

							}
, 							{
								"box" : 								{
									"id" : "obj-9",
									"maxclass" : "newobj",
									"numinlets" : 0,
									"numoutlets" : 1,
									"outlettype" : [ "" ],
									"patching_rect" : [ 381.0, 679.0, 85.0, 22.0 ],
									"text" : "r deleteLibrary"
								}

							}
, 							{
								"box" : 								{
									"id" : "obj-82",
									"maxclass" : "newobj",
									"numinlets" : 1,
									"numoutlets" : 2,
									"outlettype" : [ "zlclear", "*" ],
									"patching_rect" : [ 463.0, 470.0, 58.0, 22.0 ],
									"text" : "t zlclear *"
								}

							}
, 							{
								"box" : 								{
									"id" : "obj-81",
									"maxclass" : "newobj",
									"numinlets" : 1,
									"numoutlets" : 2,
									"outlettype" : [ "zlclear", "*" ],
									"patching_rect" : [ 316.5, 479.0, 58.0, 22.0 ],
									"text" : "t zlclear *"
								}

							}
, 							{
								"box" : 								{
									"id" : "obj-78",
									"maxclass" : "message",
									"numinlets" : 2,
									"numoutlets" : 1,
									"outlettype" : [ "" ],
									"patching_rect" : [ 425.5, 516.0, 29.5, 22.0 ],
									"text" : "*"
								}

							}
, 							{
								"box" : 								{
									"id" : "obj-73",
									"maxclass" : "newobj",
									"numinlets" : 2,
									"numoutlets" : 2,
									"outlettype" : [ "", "" ],
									"patching_rect" : [ 517.0, 516.0, 39.0, 22.0 ],
									"text" : "zl.join"
								}

							}
, 							{
								"box" : 								{
									"id" : "obj-74",
									"maxclass" : "newobj",
									"numinlets" : 1,
									"numoutlets" : 2,
									"outlettype" : [ "", "" ],
									"patching_rect" : [ 517.0, 554.0, 29.5, 22.0 ],
									"text" : "t l l"
								}

							}
, 							{
								"box" : 								{
									"id" : "obj-71",
									"maxclass" : "newobj",
									"numinlets" : 2,
									"numoutlets" : 2,
									"outlettype" : [ "", "" ],
									"patching_rect" : [ 267.0, 520.0, 39.0, 22.0 ],
									"text" : "zl.join"
								}

							}
, 							{
								"box" : 								{
									"id" : "obj-44",
									"maxclass" : "newobj",
									"numinlets" : 1,
									"numoutlets" : 2,
									"outlettype" : [ "", "" ],
									"patching_rect" : [ 267.0, 550.0, 29.5, 22.0 ],
									"text" : "t l l"
								}

							}
, 							{
								"box" : 								{
									"id" : "obj-7",
									"maxclass" : "message",
									"numinlets" : 2,
									"numoutlets" : 1,
									"outlettype" : [ "" ],
									"patching_rect" : [ 299.5, 685.0, 41.0, 22.0 ],
									"text" : "set $1"
								}

							}
, 							{
								"box" : 								{
									"comment" : "",
									"id" : "obj-2",
									"index" : 1,
									"maxclass" : "inlet",
									"numinlets" : 0,
									"numoutlets" : 1,
									"outlettype" : [ "" ],
									"patching_rect" : [ 299.5, 624.0, 30.0, 30.0 ]
								}

							}
, 							{
								"box" : 								{
									"id" : "obj-35",
									"maxclass" : "newobj",
									"numinlets" : 1,
									"numoutlets" : 1,
									"outlettype" : [ "" ],
									"patching_rect" : [ 267.0, 737.0, 53.0, 22.0 ],
									"text" : "prepend"
								}

							}
, 							{
								"box" : 								{
									"id" : "obj-28",
									"maxclass" : "newobj",
									"numinlets" : 0,
									"numoutlets" : 1,
									"outlettype" : [ "" ],
									"patching_rect" : [ 299.5, 363.191175818443298, 117.0, 22.0 ],
									"text" : "r currentRoutineText"
								}

							}
, 							{
								"box" : 								{
									"id" : "obj-22",
									"maxclass" : "newobj",
									"numinlets" : 0,
									"numoutlets" : 1,
									"outlettype" : [ "" ],
									"patching_rect" : [ 267.0, 337.191175818443298, 157.0, 22.0 ],
									"text" : "r currentRoutineComponent"
								}

							}
, 							{
								"box" : 								{
									"id" : "obj-4",
									"maxclass" : "newobj",
									"numinlets" : 0,
									"numoutlets" : 1,
									"outlettype" : [ "" ],
									"patching_rect" : [ 437.0, 363.191175818443298, 111.0, 22.0 ],
									"text" : "r deleteComponent"
								}

							}
, 							{
								"box" : 								{
									"id" : "obj-36",
									"maxclass" : "newobj",
									"numinlets" : 2,
									"numoutlets" : 3,
									"outlettype" : [ "", "", "" ],
									"patching_rect" : [ 414.0, 424.95588219165802, 42.0, 22.0 ],
									"text" : "gate 3"
								}

							}
, 							{
								"box" : 								{
									"id" : "obj-21",
									"maxclass" : "newobj",
									"numinlets" : 1,
									"numoutlets" : 1,
									"outlettype" : [ "" ],
									"patching_rect" : [ 299.5, 390.95588219165802, 57.0, 22.0 ],
									"text" : "tosymbol"
								}

							}
, 							{
								"box" : 								{
									"comment" : "",
									"id" : "obj-5",
									"index" : 1,
									"maxclass" : "outlet",
									"numinlets" : 1,
									"numoutlets" : 0,
									"patching_rect" : [ 267.0, 822.705883383750916, 30.0, 30.0 ]
								}

							}
, 							{
								"box" : 								{
									"id" : "obj-3",
									"maxclass" : "newobj",
									"numinlets" : 2,
									"numoutlets" : 1,
									"outlettype" : [ "int" ],
									"patching_rect" : [ 267.0, 390.95588219165802, 29.5, 22.0 ],
									"text" : "+ 1"
								}

							}
, 							{
								"box" : 								{
									"id" : "obj-1",
									"maxclass" : "newobj",
									"numinlets" : 2,
									"numoutlets" : 3,
									"outlettype" : [ "", "", "" ],
									"patching_rect" : [ 267.0, 424.95588219165802, 42.0, 22.0 ],
									"text" : "gate 3"
								}

							}
, 							{
								"box" : 								{
									"id" : "obj-14",
									"maxclass" : "newobj",
									"numinlets" : 3,
									"numoutlets" : 1,
									"outlettype" : [ "dictionary" ],
									"patching_rect" : [ 267.0, 598.0, 269.0, 22.0 ],
									"text" : "dict.pack args: condition: equations: @triggers -1"
								}

							}
 ],
						"lines" : [ 							{
								"patchline" : 								{
									"destination" : [ "obj-14", 1 ],
									"midpoints" : [ 288.0, 505.0, 401.5, 505.0 ],
									"source" : [ "obj-1", 1 ]
								}

							}
, 							{
								"patchline" : 								{
									"destination" : [ "obj-71", 0 ],
									"source" : [ "obj-1", 0 ]
								}

							}
, 							{
								"patchline" : 								{
									"destination" : [ "obj-73", 0 ],
									"midpoints" : [ 299.5, 501.0, 526.5, 501.0 ],
									"source" : [ "obj-1", 2 ]
								}

							}
, 							{
								"patchline" : 								{
									"destination" : [ "obj-29", 0 ],
									"midpoints" : [ 390.5, 771.0, 276.5, 771.0 ],
									"source" : [ "obj-12", 0 ]
								}

							}
, 							{
								"patchline" : 								{
									"destination" : [ "obj-12", 1 ],
									"midpoints" : [ 309.0, 681.0, 351.0, 681.0, 351.0, 720.0, 432.0, 720.0, 432.0, 729.0, 441.5, 729.0 ],
									"order" : 0,
									"source" : [ "obj-13", 0 ]
								}

							}
, 							{
								"patchline" : 								{
									"destination" : [ "obj-7", 0 ],
									"order" : 1,
									"source" : [ "obj-13", 0 ]
								}

							}
, 							{
								"patchline" : 								{
									"destination" : [ "obj-35", 0 ],
									"source" : [ "obj-14", 0 ]
								}

							}
, 							{
								"patchline" : 								{
									"destination" : [ "obj-29", 0 ],
									"midpoints" : [ 444.5, 771.0, 276.5, 771.0 ],
									"source" : [ "obj-17", 0 ]
								}

							}
, 							{
								"patchline" : 								{
									"destination" : [ "obj-13", 0 ],
									"source" : [ "obj-2", 0 ]
								}

							}
, 							{
								"patchline" : 								{
									"destination" : [ "obj-1", 1 ],
									"source" : [ "obj-21", 0 ]
								}

							}
, 							{
								"patchline" : 								{
									"destination" : [ "obj-3", 0 ],
									"source" : [ "obj-22", 0 ]
								}

							}
, 							{
								"patchline" : 								{
									"destination" : [ "obj-17", 0 ],
									"source" : [ "obj-24", 0 ]
								}

							}
, 							{
								"patchline" : 								{
									"destination" : [ "obj-21", 0 ],
									"source" : [ "obj-28", 0 ]
								}

							}
, 							{
								"patchline" : 								{
									"destination" : [ "obj-5", 0 ],
									"source" : [ "obj-29", 0 ]
								}

							}
, 							{
								"patchline" : 								{
									"destination" : [ "obj-1", 0 ],
									"order" : 1,
									"source" : [ "obj-3", 0 ]
								}

							}
, 							{
								"patchline" : 								{
									"destination" : [ "obj-36", 0 ],
									"midpoints" : [ 276.5, 413.0, 400.0, 413.0, 400.0, 401.0, 423.5, 401.0 ],
									"order" : 0,
									"source" : [ "obj-3", 0 ]
								}

							}
, 							{
								"patchline" : 								{
									"destination" : [ "obj-29", 0 ],
									"source" : [ "obj-35", 0 ]
								}

							}
, 							{
								"patchline" : 								{
									"destination" : [ "obj-78", 0 ],
									"source" : [ "obj-36", 1 ]
								}

							}
, 							{
								"patchline" : 								{
									"destination" : [ "obj-81", 0 ],
									"source" : [ "obj-36", 0 ]
								}

							}
, 							{
								"patchline" : 								{
									"destination" : [ "obj-82", 0 ],
									"source" : [ "obj-36", 2 ]
								}

							}
, 							{
								"patchline" : 								{
									"destination" : [ "obj-36", 1 ],
									"order" : 1,
									"source" : [ "obj-4", 0 ]
								}

							}
, 							{
								"patchline" : 								{
									"destination" : [ "obj-8", 0 ],
									"order" : 0,
									"source" : [ "obj-4", 0 ]
								}

							}
, 							{
								"patchline" : 								{
									"destination" : [ "obj-14", 0 ],
									"source" : [ "obj-44", 0 ]
								}

							}
, 							{
								"patchline" : 								{
									"destination" : [ "obj-71", 1 ],
									"midpoints" : [ 287.0, 582.0, 317.0, 582.0, 317.0, 516.0, 296.5, 516.0 ],
									"source" : [ "obj-44", 1 ]
								}

							}
, 							{
								"patchline" : 								{
									"destination" : [ "obj-35", 0 ],
									"midpoints" : [ 309.0, 729.0, 276.5, 729.0 ],
									"source" : [ "obj-7", 0 ]
								}

							}
, 							{
								"patchline" : 								{
									"destination" : [ "obj-44", 0 ],
									"source" : [ "obj-71", 0 ]
								}

							}
, 							{
								"patchline" : 								{
									"destination" : [ "obj-74", 0 ],
									"source" : [ "obj-73", 0 ]
								}

							}
, 							{
								"patchline" : 								{
									"destination" : [ "obj-14", 2 ],
									"source" : [ "obj-74", 0 ]
								}

							}
, 							{
								"patchline" : 								{
									"destination" : [ "obj-73", 1 ],
									"midpoints" : [ 537.0, 578.0, 556.0, 578.0, 556.0, 512.0, 546.5, 512.0 ],
									"source" : [ "obj-74", 1 ]
								}

							}
, 							{
								"patchline" : 								{
									"destination" : [ "obj-14", 1 ],
									"midpoints" : [ 435.0, 585.0, 401.5, 585.0 ],
									"source" : [ "obj-78", 0 ]
								}

							}
, 							{
								"patchline" : 								{
									"destination" : [ "obj-14", 0 ],
									"midpoints" : [ 365.0, 585.0, 276.5, 585.0 ],
									"source" : [ "obj-81", 1 ]
								}

							}
, 							{
								"patchline" : 								{
									"destination" : [ "obj-71", 0 ],
									"midpoints" : [ 326.0, 504.0, 276.5, 504.0 ],
									"source" : [ "obj-81", 0 ]
								}

							}
, 							{
								"patchline" : 								{
									"destination" : [ "obj-14", 2 ],
									"midpoints" : [ 511.5, 594.0, 526.5, 594.0 ],
									"source" : [ "obj-82", 1 ]
								}

							}
, 							{
								"patchline" : 								{
									"destination" : [ "obj-73", 0 ],
									"midpoints" : [ 472.5, 501.0, 526.5, 501.0 ],
									"source" : [ "obj-82", 0 ]
								}

							}
, 							{
								"patchline" : 								{
									"destination" : [ "obj-12", 0 ],
									"source" : [ "obj-9", 0 ]
								}

							}
 ],
						"styles" : [ 							{
								"name" : "evening_coffee",
								"default" : 								{
									"selectioncolor" : [ 0.0, 0.874509803921569, 1.0, 1.0 ],
									"color" : [ 0.768627450980392, 0.682352941176471, 0.682352941176471, 1.0 ],
									"accentcolor" : [ 0.211764705882353, 0.184313725490196, 0.282352941176471, 1.0 ],
									"locked_bgcolor" : [ 0.003921568627451, 0.035294117647059, 0.007843137254902, 1.0 ],
									"bgcolor" : [ 0.231372549019608, 0.23921568627451, 0.443137254901961, 0.5 ],
									"elementcolor" : [ 0.215686274509804, 0.266666666666667, 0.27843137254902, 1.0 ],
									"editing_bgcolor" : [ 0.086274509803922, 0.058823529411765, 0.007843137254902, 1.0 ],
									"clearcolor" : [ 0.058823529411765, 0.0, 0.094117647058824, 0.3 ],
									"textcolor_inverse" : [ 0.843137254901961, 0.870588235294118, 0.850980392156863, 1.0 ],
									"textcolor" : [ 0.886274509803922, 0.862745098039216, 0.890196078431372, 1.0 ],
									"bgfillcolor" : 									{
										"type" : "gradient",
										"color" : [ 0.2, 0.2, 0.2, 1.0 ],
										"color1" : [ 0.156862745098039, 0.188235294117647, 0.325490196078431, 1.0 ],
										"color2" : [ 0.298039215686275, 0.23921568627451, 0.23921568627451, 1.0 ],
										"angle" : 270.0,
										"proportion" : 0.5,
										"autogradient" : 0.0
									}

								}
,
								"parentstyle" : "",
								"multi" : 0
							}
 ]
					}
,
					"patching_rect" : [ 20.152542352676392, 451.963338548495358, 209.0, 22.0 ],
					"saved_object_attributes" : 					{
						"description" : "",
						"digest" : "",
						"globalpatchername" : "",
						"style" : "evening_coffee",
						"tags" : ""
					}
,
					"text" : "p formatLibraryAndGetRoutineNames"
				}

			}
, 			{
				"box" : 				{
					"bangmode" : 1,
					"bgcolor" : [ 0.0, 0.0, 0.0, 0.0 ],
					"clickmode" : 1,
					"fontname" : "Arial",
					"fontsize" : 12.0,
					"id" : "obj-66",
					"maxclass" : "textedit",
					"numinlets" : 1,
					"numoutlets" : 4,
					"outlettype" : [ "", "int", "", "" ],
					"outputmode" : 1,
					"parameter_enable" : 0,
					"patching_rect" : [ 188.464307594299385, 134.212178595364094, 255.184026201565985, 100.672336265444756 ],
					"presentation" : 1,
					"presentation_rect" : [ 12.789332921306368, 32.388947229832411, 224.392906606197357, 228.242887385189533 ],
					"textcolor" : [ 0.631372549019608, 1.0, 0.737254901960784, 1.0 ]
				}

			}
, 			{
				"box" : 				{
					"bgcolor" : [ 0.0, 0.0, 0.0, 0.19 ],
					"fontsize" : 12.0,
					"gradient" : 0.25,
					"id" : "obj-5",
					"margin" : 8,
					"maxclass" : "tab",
					"mode" : 1,
					"numinlets" : 1,
					"numoutlets" : 3,
					"outlettype" : [ "int", "", "" ],
					"parameter_enable" : 0,
					"patching_rect" : [ 188.464307594299385, 30.021191962063313, 425.817646884918076, 40.972157180309296 ],
					"presentation" : 1,
					"presentation_rect" : [ 12.789332921306368, 7.730153989046812, 337.392906606197357, 20.658793240785599 ],
					"rounded" : 16.0,
					"spacing_x" : 2.0,
					"tabcolor" : [ 0.227450980392157, 0.23921568627451, 0.164705882352941, 1.0 ],
					"tabs" : [ "args", "condition", "equations" ]
				}

			}
, 			{
				"box" : 				{
					"bgcolor" : [ 0.0, 0.094117647058824, 0.058823529411765, 0.301960784313725 ],
					"fontname" : "Arial",
					"gradient" : 0.2,
					"id" : "obj-7",
					"maxclass" : "tab",
					"numinlets" : 1,
					"numoutlets" : 3,
					"outlettype" : [ "int", "", "" ],
					"parameter_enable" : 0,
					"patching_rect" : [ 11.652542352676392, 30.021191962063313, 141.0, 150.057267904281616 ],
					"presentation" : 1,
					"presentation_rect" : [ 244.294610167543169, 32.388947229832411, 99.443814679980278, 110.735030502080917 ],
					"tabcolor" : [ 0.172549019607843, 0.196078431372549, 0.203921568627451, 1.0 ],
					"tabs" : [ "modifiers", "syntaxes", "metrics", "maps", "interpretations" ]
				}

			}
, 			{
				"box" : 				{
					"angle" : 270.0,
					"grad1" : [ 0.0, 0.0, 0.0, 1.0 ],
					"grad2" : [ 0.164705882352941, 0.164705882352941, 0.164705882352941, 1.0 ],
					"id" : "obj-67",
					"maxclass" : "panel",
					"mode" : 1,
					"numinlets" : 1,
					"numoutlets" : 0,
					"patching_rect" : [ 188.464307594299385, 134.212178595364094, 255.184026201565985, 98.172336265444756 ],
					"presentation" : 1,
					"presentation_rect" : [ 12.789332921306368, 32.388947229832411, 224.392906606197357, 229.242887385189533 ],
					"proportion" : 0.5
				}

			}
, 			{
				"box" : 				{
					"comment" : "",
					"id" : "obj-1",
					"index" : 0,
					"maxclass" : "outlet",
					"numinlets" : 1,
					"numoutlets" : 0,
					"patching_rect" : [ 20.152542352676392, 536.0, 30.0, 30.0 ],
					"varname" : "fullLibrary"
				}

			}
 ],
		"lines" : [ 			{
				"patchline" : 				{
					"destination" : [ "obj-2", 0 ],
					"source" : [ "obj-11", 0 ]
				}

			}
, 			{
				"patchline" : 				{
					"destination" : [ "obj-1", 0 ],
					"order" : 1,
					"source" : [ "obj-114", 0 ]
				}

			}
, 			{
				"patchline" : 				{
					"destination" : [ "obj-18", 0 ],
					"midpoints" : [ 29.652542352676392, 482.0, 183.652542352676392, 482.0 ],
					"order" : 0,
					"source" : [ "obj-114", 0 ]
				}

			}
, 			{
				"patchline" : 				{
					"destination" : [ "obj-7", 0 ],
					"source" : [ "obj-12", 0 ]
				}

			}
, 			{
				"patchline" : 				{
					"destination" : [ "obj-22", 0 ],
					"source" : [ "obj-15", 1 ]
				}

			}
, 			{
				"patchline" : 				{
					"destination" : [ "obj-3", 0 ],
					"source" : [ "obj-150", 0 ]
				}

			}
, 			{
				"patchline" : 				{
					"destination" : [ "obj-15", 0 ],
					"source" : [ "obj-16", 0 ]
				}

			}
, 			{
				"patchline" : 				{
					"destination" : [ "obj-150", 0 ],
					"source" : [ "obj-162", 0 ]
				}

			}
, 			{
				"patchline" : 				{
					"destination" : [ "obj-250", 1 ],
					"source" : [ "obj-17", 1 ]
				}

			}
, 			{
				"patchline" : 				{
					"destination" : [ "obj-250", 0 ],
					"source" : [ "obj-17", 0 ]
				}

			}
, 			{
				"patchline" : 				{
					"destination" : [ "obj-4", 0 ],
					"source" : [ "obj-18", 1 ]
				}

			}
, 			{
				"patchline" : 				{
					"destination" : [ "obj-17", 0 ],
					"source" : [ "obj-19", 0 ]
				}

			}
, 			{
				"patchline" : 				{
					"destination" : [ "obj-27", 0 ],
					"source" : [ "obj-20", 0 ]
				}

			}
, 			{
				"patchline" : 				{
					"destination" : [ "obj-21", 0 ],
					"source" : [ "obj-250", 0 ]
				}

			}
, 			{
				"patchline" : 				{
					"destination" : [ "obj-66", 0 ],
					"source" : [ "obj-26", 0 ]
				}

			}
, 			{
				"patchline" : 				{
					"destination" : [ "obj-114", 0 ],
					"source" : [ "obj-3", 0 ]
				}

			}
, 			{
				"patchline" : 				{
					"destination" : [ "obj-11", 0 ],
					"midpoints" : [ 219.652542352676392, 556.0, 197.688234758377007, 556.0, 197.688234758377007, 583.0, 197.340777111053399, 583.0 ],
					"source" : [ "obj-4", 0 ]
				}

			}
, 			{
				"patchline" : 				{
					"destination" : [ "obj-13", 0 ],
					"source" : [ "obj-5", 0 ]
				}

			}
, 			{
				"patchline" : 				{
					"destination" : [ "obj-8", 0 ],
					"source" : [ "obj-5", 1 ]
				}

			}
, 			{
				"patchline" : 				{
					"destination" : [ "obj-5", 0 ],
					"source" : [ "obj-6", 0 ]
				}

			}
, 			{
				"patchline" : 				{
					"destination" : [ "obj-20", 0 ],
					"source" : [ "obj-66", 0 ]
				}

			}
, 			{
				"patchline" : 				{
					"destination" : [ "obj-10", 0 ],
					"source" : [ "obj-7", 1 ]
				}

			}
, 			{
				"patchline" : 				{
					"destination" : [ "obj-14", 0 ],
					"source" : [ "obj-7", 0 ]
				}

			}
, 			{
				"patchline" : 				{
					"destination" : [ "obj-11", 1 ],
					"source" : [ "obj-9", 0 ]
				}

			}
 ],
		"dependency_cache" : [  ],
		"autosave" : 0,
		"styles" : [ 			{
				"name" : "evening_coffee",
				"default" : 				{
					"selectioncolor" : [ 0.0, 0.874509803921569, 1.0, 1.0 ],
					"color" : [ 0.768627450980392, 0.682352941176471, 0.682352941176471, 1.0 ],
					"accentcolor" : [ 0.211764705882353, 0.184313725490196, 0.282352941176471, 1.0 ],
					"locked_bgcolor" : [ 0.003921568627451, 0.035294117647059, 0.007843137254902, 1.0 ],
					"bgcolor" : [ 0.231372549019608, 0.23921568627451, 0.443137254901961, 0.5 ],
					"elementcolor" : [ 0.215686274509804, 0.266666666666667, 0.27843137254902, 1.0 ],
					"editing_bgcolor" : [ 0.086274509803922, 0.058823529411765, 0.007843137254902, 1.0 ],
					"clearcolor" : [ 0.058823529411765, 0.0, 0.094117647058824, 0.3 ],
					"textcolor_inverse" : [ 0.843137254901961, 0.870588235294118, 0.850980392156863, 1.0 ],
					"textcolor" : [ 0.886274509803922, 0.862745098039216, 0.890196078431372, 1.0 ],
					"bgfillcolor" : 					{
						"type" : "gradient",
						"color" : [ 0.2, 0.2, 0.2, 1.0 ],
						"color1" : [ 0.156862745098039, 0.188235294117647, 0.325490196078431, 1.0 ],
						"color2" : [ 0.298039215686275, 0.23921568627451, 0.23921568627451, 1.0 ],
						"angle" : 270.0,
						"proportion" : 0.5,
						"autogradient" : 0.0
					}

				}
,
				"parentstyle" : "",
				"multi" : 0
			}
 ]
	}

}
